<svg xmlns="http://www.w3.org/2000/svg" viewBox="60 35 240 310" role="img" aria-labelledby="title desc">
  <title id="title">ASSURE-AI icon</title>
  <desc id="desc">The shield and AI chip mark from the ASSURE-AI logo.</desc>
  <defs>
    <linearGradient id="gold" x1="55" y1="65" x2="141" y2="142" gradientUnits="userSpaceOnUse">
      <stop stop-color="#ffe5a2"/>
      <stop offset=".48" stop-color="#f5cd6b"/>
      <stop offset="1" stop-color="#d69e30"/>
    </linearGradient>
  </defs>
  <g transform="translate(42 47)">
    <path d="M138 5 246 43v76c0 68-42 127-108 161C72 246 30 187 30 119V43L138 5Z" fill="#071a38"/>
    <path d="M138 12 239 48v71c0 63-39 118-101 151C76 237 37 182 37 119V48l101-36Z" fill="none" stroke="url(#gold)" stroke-linejoin="round" stroke-width="12"/>
    <rect x="104" y="101" width="68" height="68" rx="12" fill="none" stroke="#f5cd6b" stroke-width="8"/>
    <path d="M126 123h24v24h-24zM104 123H82m90 0h22M126 101V79m0 90v22M150 101V79m0 90v22" fill="none" stroke="#f5cd6b" stroke-linecap="round" stroke-linejoin="round" stroke-width="6"/>
    <circle cx="75" cy="123" r="8" fill="#64c7ff"/><circle cx="197" cy="123" r="8" fill="#64c7ff"/><circle cx="126" cy="72" r="8" fill="#64c7ff"/><circle cx="150" cy="198" r="8" fill="#64c7ff"/>
  </g>
</svg>
